<svg xmlns="http://www.w3.org/2000/svg" xmlns:xlink="http://www.w3.org/1999/xlink" version="1.1" x="0px" y="0px" viewBox="0 0 64 80" enable-background="new 0 0 64 64" xml:space="preserve"><g><g><g><path fill="#000000" d="M39.252,27.931c3.443,0,6.244,2.801,6.244,6.244c0,4.782-2.854,7.103-7.583,10.946     c-1.8,1.463-3.795,3.086-5.917,5.085c-1.974-1.836-3.895-3.363-5.628-4.742c-4.736-3.766-7.865-6.254-7.865-11.289     c0-3.443,2.801-6.244,6.245-6.244c2.293,0,4.399,1.254,5.495,3.274l1.759,3.24l1.757-3.242     C34.854,29.185,36.958,27.931,39.252,27.931 M39.252,25.931c-3.133,0-5.855,1.746-7.251,4.32c-1.397-2.574-4.121-4.32-7.253-4.32     c-4.554,0-8.245,3.69-8.245,8.244c0,8.601,7.605,10.921,15.498,18.813c8.457-8.457,15.495-10.567,15.495-18.813     C47.496,29.621,43.807,25.931,39.252,25.931L39.252,25.931z"/></g><path fill="#000000" d="M25.132,42.589c-0.219-0.12-5.365-3-5.565-7.534c-0.081-1.838,0.392-3.32,1.404-4.406    c1.498-1.606,3.623-1.681,3.712-1.684l0.054,1.999l-0.027-1l0.033,1c-0.014,0-1.407,0.067-2.322,1.063    c-0.624,0.678-0.912,1.667-0.856,2.94c0.15,3.406,4.488,5.847,4.532,5.87L25.132,42.589z"/></g><g><path fill="#000000" d="M50.497,18.393v42.132H13.503V18.393H50.497 M52.497,16.393H11.503v46.132h40.994V16.393L52.497,16.393z"/></g><path fill="#000000" d="M45.459,16.626h-2c0-7.803-5.14-14.152-11.458-14.152S20.542,8.823,20.542,16.626h-2   c0-8.906,6.038-16.152,13.459-16.152C39.422,0.474,45.459,7.72,45.459,16.626z"/></g><text x="0" y="79" fill="#000000" font-size="5px" font-weight="bold" font-family="'Helvetica Neue', Helvetica, Arial-Unicode, Arial, Sans-serif">Created by Creative Stall</text><text x="0" y="84" fill="#000000" font-size="5px" font-weight="bold" font-family="'Helvetica Neue', Helvetica, Arial-Unicode, Arial, Sans-serif">from the Noun Project</text></svg>